<svg width="26" height="26" viewBox="0 0 26 26" fill="none" xmlns="http://www.w3.org/2000/svg">
<rect width="26" height="26" rx="13" fill="#1400F5"/>
<path d="M16.2662 10.8587C16.2241 10.8166 16.1726 10.785 16.1158 10.7668C16.0591 10.7485 15.9988 10.744 15.94 10.7537C15.8816 10.7635 15.8264 10.7869 15.7788 10.8221C15.7312 10.8573 15.6927 10.9033 15.6663 10.9562C15.5516 11.1547 15.4116 11.3375 15.25 11.5C15.2119 10.5141 14.8509 9.56808 14.2225 8.80748C13.8709 8.44649 13.4459 8.16525 12.9762 7.98281C12.5065 7.80036 12.0031 7.72096 11.5 7.74998C11.4322 7.75016 11.3656 7.76874 11.3075 7.80374C11.2494 7.83874 11.2019 7.88885 11.17 7.94873C11.1399 8.00737 11.1258 8.07291 11.1291 8.13875C11.1324 8.20458 11.1529 8.26839 11.1888 8.32373C11.2413 8.40248 12.3813 10.1575 11.08 11.7362C10.75 11.4775 10.375 11.0687 10.375 10.75C10.3745 10.666 10.3458 10.5846 10.2936 10.5189C10.2413 10.4532 10.1686 10.4069 10.0869 10.3874C10.0052 10.368 9.91932 10.3765 9.84306 10.4116C9.7668 10.4468 9.70454 10.5065 9.66625 10.5812C9.15403 11.693 8.8843 12.901 8.875 14.125C8.875 17.3575 11.2788 18.1975 11.38 18.25C11.4527 18.2747 11.5312 18.2765 11.6049 18.2551C11.6786 18.2338 11.744 18.1903 11.7923 18.1306C11.8405 18.0709 11.8693 17.9979 11.8747 17.9213C11.8801 17.8447 11.8619 17.7684 11.8225 17.7025C11.4668 17.0637 11.3261 16.3274 11.4212 15.6025C11.6522 16.0505 11.9961 16.4305 12.4187 16.705C12.4983 16.7577 12.5949 16.7781 12.689 16.7621C12.783 16.7461 12.8674 16.6948 12.925 16.6187C13.4436 15.86 13.6895 14.9478 13.6225 14.0312C14.0163 14.635 14.3163 15.7637 13.765 17.7812C13.7508 17.8364 13.7493 17.8941 13.7606 17.9499C13.772 18.0057 13.796 18.0582 13.8307 18.1034C13.8654 18.1486 13.9099 18.1853 13.9609 18.2107C14.0119 18.2361 14.068 18.2495 14.125 18.25C14.1585 18.2554 14.1927 18.2554 14.2263 18.25C15.0865 17.962 15.832 17.4062 16.3536 16.6639C16.8752 15.9217 17.1455 15.0319 17.125 14.125C17.125 11.7887 16.3525 10.9487 16.2662 10.8587Z" fill="#D52929" stroke="white" stroke-opacity="0.4" stroke-width="0.2"/>
</svg>
